TITLE ""
FILE "2Q_t_0288-0300.mp3" MP3
  TRACK 01 AUDIO
    TITLE "2Q_t_0288-0300_01"
    INDEX 01 00:00:00
  TRACK 02 AUDIO
    TITLE "2Q_t_0288-0300_02"
    INDEX 01 00:00:10
  TRACK 03 AUDIO
    TITLE "2Q_t_0288-0300_03"
    INDEX 01 00:01:31
  TRACK 04 AUDIO
    TITLE "2Q_t_0288-0300_04"
    INDEX 01 00:02:03
  TRACK 05 AUDIO
    TITLE "2Q_t_0288-0300_05"
    INDEX 01 00:03:22
  TRACK 06 AUDIO
    TITLE "2Q_t_0288-0300_06"
    INDEX 01 00:03:65
  TRACK 07 AUDIO
    TITLE "2Q_t_0288-0300_07"
    INDEX 01 00:05:06
  TRACK 08 AUDIO
    TITLE "2Q_t_0288-0300_08"
    INDEX 01 00:05:55
  TRACK 09 AUDIO
    TITLE "2Q_t_0288-0300_09"
    INDEX 01 00:08:43
  TRACK 10 AUDIO
    TITLE "2Q_t_0288-0300_10"
    INDEX 01 00:09:13
  TRACK 11 AUDIO
    TITLE "2Q_t_0288-0300_11"
    INDEX 01 00:10:15
  TRACK 12 AUDIO
    TITLE "2Q_t_0288-0300_12"
    INDEX 01 00:10:64
  TRACK 13 AUDIO
    TITLE "2Q_t_0288-0300_13"
    INDEX 01 00:11:65
  TRACK 14 AUDIO
    TITLE "2Q_t_0288-0300_14"
    INDEX 01 00:12:33
  TRACK 15 AUDIO
    TITLE "2Q_t_0288-0300_15"
    INDEX 01 00:13:48
  TRACK 16 AUDIO
    TITLE "2Q_t_0288-0300_16"
    INDEX 01 00:14:18
  TRACK 17 AUDIO
    TITLE "2Q_t_0288-0300_17"
    INDEX 01 00:17:26
  TRACK 18 AUDIO
    TITLE "2Q_t_0288-0300_18"
    INDEX 01 00:17:73
  TRACK 19 AUDIO
    TITLE "2Q_t_0288-0300_19"
    INDEX 01 00:19:00
  TRACK 20 AUDIO
    TITLE "2Q_t_0288-0300_20"
    INDEX 01 00:19:61
  TRACK 21 AUDIO
    TITLE "2Q_t_0288-0300_21"
    INDEX 01 00:21:09
  TRACK 22 AUDIO
    TITLE "2Q_t_0288-0300_22"
    INDEX 01 00:21:54
  TRACK 23 AUDIO
    TITLE "2Q_t_0288-0300_23"
    INDEX 01 00:23:23
  TRACK 24 AUDIO
    TITLE "2Q_t_0288-0300_24"
    INDEX 01 00:23:68
  TRACK 25 AUDIO
    TITLE "2Q_t_0288-0300_25"
    INDEX 01 00:25:24
  TRACK 26 AUDIO
    TITLE "2Q_t_0288-0300_26"
    INDEX 01 00:25:69
  TRACK 27 AUDIO
    TITLE "2Q_t_0288-0300_27"
    INDEX 01 00:27:01
  TRACK 28 AUDIO
    TITLE "2Q_t_0288-0300_28"
    INDEX 01 00:27:46
  TRACK 29 AUDIO
    TITLE "2Q_t_0288-0300_29"
    INDEX 01 00:29:04
  TRACK 30 AUDIO
    TITLE "2Q_t_0288-0300_30"
    INDEX 01 00:29:51
  TRACK 31 AUDIO
    TITLE "2Q_t_0288-0300_31"
    INDEX 01 00:31:03
  TRACK 32 AUDIO
    TITLE "2Q_t_0288-0300_32"
    INDEX 01 00:31:46
  TRACK 33 AUDIO
    TITLE "2Q_t_0288-0300_33"
    INDEX 01 00:32:53
  TRACK 34 AUDIO
    TITLE "2Q_t_0288-0300_34"
    INDEX 01 00:33:27
  TRACK 35 AUDIO
    TITLE "2Q_t_0288-0300_35"
    INDEX 01 00:35:44
  TRACK 36 AUDIO
    TITLE "2Q_t_0288-0300_36"
    INDEX 01 00:36:14
  TRACK 37 AUDIO
    TITLE "2Q_t_0288-0300_37"
    INDEX 01 00:37:45
  TRACK 38 AUDIO
    TITLE "2Q_t_0288-0300_38"
    INDEX 01 00:38:21
  TRACK 39 AUDIO
    TITLE "2Q_t_0288-0300_39"
    INDEX 01 00:40:47
  TRACK 40 AUDIO
    TITLE "2Q_t_0288-0300_40"
    INDEX 01 00:41:19
  TRACK 41 AUDIO
    TITLE "2Q_t_0288-0300_41"
    INDEX 01 00:42:44
  TRACK 42 AUDIO
    TITLE "2Q_t_0288-0300_42"
    INDEX 01 00:43:16
  TRACK 43 AUDIO
    TITLE "2Q_t_0288-0300_43"
    INDEX 01 00:45:27
  TRACK 44 AUDIO
    TITLE "2Q_t_0288-0300_44"
    INDEX 01 00:45:70
  TRACK 45 AUDIO
    TITLE "2Q_t_0288-0300_45"
    INDEX 01 00:47:37
  TRACK 46 AUDIO
    TITLE "2Q_t_0288-0300_46"
    INDEX 01 00:48:13
  TRACK 47 AUDIO
    TITLE "2Q_t_0288-0300_47"
    INDEX 01 00:49:36
  TRACK 48 AUDIO
    TITLE "2Q_t_0288-0300_48"
    INDEX 01 00:50:06
  TRACK 49 AUDIO
    TITLE "2Q_t_0288-0300_49"
    INDEX 01 00:51:29
  TRACK 50 AUDIO
    TITLE "2Q_t_0288-0300_50"
    INDEX 01 00:52:09
  TRACK 51 AUDIO
    TITLE "2Q_t_0288-0300_51"
    INDEX 01 00:55:31
  TRACK 52 AUDIO
    TITLE "2Q_t_0288-0300_52"
    INDEX 01 00:56:01
  TRACK 53 AUDIO
    TITLE "2Q_t_0288-0300_53"
    INDEX 01 00:57:18
  TRACK 54 AUDIO
    TITLE "2Q_t_0288-0300_54"
    INDEX 01 00:57:63
  TRACK 55 AUDIO
    TITLE "2Q_t_0288-0300_55"
    INDEX 01 00:58:68
  TRACK 56 AUDIO
    TITLE "2Q_t_0288-0300_56"
    INDEX 01 00:59:48
  TRACK 57 AUDIO
    TITLE "2Q_t_0288-0300_57"
    INDEX 01 01:01:57
